<?xml version="1.0" encoding="UTF-8"?>
<svg id="Layer_1" data-name="Layer 1" xmlns="http://www.w3.org/2000/svg" width="500" height="300" viewBox="0 0 500 300">
  <path d="M74.780128479003906,169.994155883789062c.049125671386719.207122802734375-.111228942871094.354522705078125-.4815673828125.442733764648438-.246696472167969.058685302734375-.472007751464844.098480224609375-.67510986328125.121917724609375-1.578048706054688.32611083984375-3.155487060546875.657379150390625-4.732307434082031.993850708007812-1.55303955078125.433212280273438-3.104843139648438.871414184570312-4.655372619628906,1.314697265625-.16693115234375.067428588867188-.348018646240234.127334594726562-.544475555419922.177108764648438-.492546081542969.124923706054688-.770378112792969.060806274414062-.834999084472656-.192886352539062-.070919036865234-.278152465820312.226192474365234-.502243041992188.891067504882812-.670578002929688,2.161220550537109-.572738647460938,3.193920135498047-1.053207397460938,3.093723297119141-1.45751953125-.005630493164062-.022720336914062-.054306030273438-.111221313476562-.146003723144531-.265594482421875-.180496215820312-.294967651367188-.36114501953125-.589767456054688-.541900634765625-.884597778320312-.105438232421875-.153228759765625-.210906982421875-.30645751953125-.316452026367188-.4595947265625-.410224914550781-.695663452148438-1.366310119628906-2.219863891601562-2.882572174072266-4.568405151367188-2.660240173339844.66937255859375-5.317756652832031,1.353424072265625-7.972431182861328,2.052108764648438-.472099304199219,4.252609252929688-.613067626953125,6.666366577148438-.460117340087891,7.244888305664062.090038299560547.337860107421875.292293548583984.50323486328125.606452941894531.497512817382812.080619812011719.004974365234375.707145690917969-.11077880859375,1.882301330566406-.343185424804688.719112396240234-.162841796875,1.107196807861328-.135955810546875,1.163974761962891.081375122070312.063198089599609.241836547851562-.224498748779297.446121215820312-.862850189208984.613922119140625-1.130214691162109.297119140625-2.457309722900391.596343994140625-3.979766845703125.902252197265625-.374252319335938.0753173828125-.758369445800781.165679931640625-1.150688171386719.271759033203125-.392810821533203.106216430664062-.762035369873047.249862670898438-1.107879638671875.4300537109375-.185012817382812.092636108398438-.338706970214844.156997680664062-.461532592773438.190521240234375-.343059539794922.093673706054688-.544895172119141.032455444335938-.604461669921875-.185165405273438-.059551239013672-.217376708984375.293933868408203-.44415283203125,1.060703277587891-.678955078125.766498565673828-.233642578125,1.293819427490234-.49932861328125,1.582736968994141-.797592163085938.288417816162109-.298141479492188.453334808349609-.762985229492188.495052337646484-1.397079467773438.780437469482422-9.74761962890625,1.557933807373047-17.593231201171875,2.219070434570312-23.527359008789062-.013984680175781-.299789428710938.021987915039062-.650924682617188.107990264892578-1.054061889648438-.002098083496094-.234359741210938-.004127502441406-.468704223632812-.006122589111328-.703079223632812.008659362792969-.285537719726562.0758056640625-.444351196289062.203887939453125-.47705078125.076271057128906-.019393920898438.158050537109375.036727905273438.2464599609375.168838500976562.570796966552734.858688354492188,1.825717926025391,2.636581420898438,3.745059967041016,5.343002319335938,1.497428894042969,2.119796752929688,5.255512237548828,7.435745239257812,11.088916778564453,16.03253173828125.330680847167969.501708984375.668190002441406.78851318359375,1.013137817382812.864044189453125.344924926757812.075469970703125,1.001449584960938.0084228515625,1.971046447753906-.196060180664062.647163391113281-.130340576171875.995903015136719-.09136962890625,1.045028686523438.115646362304688ZM62.57183837890625,163.753341674804688c-.680168151855469-.98675537109375-1.807807922363281-2.619903564453125-3.393062591552734-4.894744873046875-1.029651641845703-1.522079467773438-2.063251495361328-3.042343139648438-3.100788116455078-4.560821533203125-.376392364501953,2.947601318359375-.750278472900391,6.751983642578125-1.099891662597656,11.409942626953125,2.528713226318359-.664718627929688,5.059993743896484-1.316177368164062,7.593742370605469-1.954376220703125Z" style="fill: #0071bc;"/>
  <path d="M99.221755981445312,164.66156005859375c.037025451660156.18280029296875-.155647277832031.317352294921875-.577049255371094.403045654296875-.050010681152344.01019287109375-.316017150878906.064300537109375-.800041198730469.163131713867188-.483451843261719.098831176757812-1.134880065917969.232467651367188-1.952934265136719.401962280273438-.074104309082031.016143798828125-1.389122009277344.285400390625-3.940757751464844.827606201171875-.321853637695312.06854248046875-.499969482421875.022705078125-.534027099609375-.136795043945312-.03875732421875-.181365966796875.077468872070312-.302154541015625.35064697265625-.360321044921875.09912109375-.021087646484375.198272705078125-.04217529296875.297401428222656-.063262939453125.30987548828125-.065826416015625.6197509765625-.131500244140625.929679870605469-.196945190429688.367118835449219-.10247802734375.566047668457031-.234039306640625.59722900390625-.394287109375.030899047851562-.159133911132812-.0460205078125-.679855346679688-.231361389160156-1.561981201171875-.637687683105469-3.03497314453125-1.275382995605469-6.0699462890625-1.913078308105469-9.104904174804688-.298110961914062-1.419158935546875-.704742431640625-2.388641357421875-1.220565795898438-2.906585693359375-.5150146484375-.517181396484375-1.238082885742188-.677825927734375-2.167556762695312-.479232788085938-.653152465820312.139495849609375-1.221786499023438.459716796875-1.705078125.959854125976562-.482704162597656.500030517578125-.772651672363281,1.06695556640625-.870391845703125,1.701873779296875-.021049499511719.38739013671875.224296569824219,1.751068115234375.734825134277344,4.091690063476562.502418518066406,2.3035888671875,1.004829406738281,4.607177734375,1.507255554199219,6.9107666015625.175491333007812.804351806640625.289199829101562,1.265289306640625.339859008789062,1.38116455078125.137115478515625.277053833007812.387557983398438.375198364257812.753562927246094.2957763671875.353439331054688-.076751708984375.706924438476562-.153228759765625,1.060432434082031-.229446411132812.316200256347656-.068145751953125.494514465332031-.010498046875.533477783203125.170867919921875.034233093261719.15948486328125-.134101867675781.279510498046875-.505332946777344.359542846679688-.086746215820312.018722534179688-.173477172851562.037429809570312-.260208129882812.056167602539062-.247642517089844.053665161132812-1.089881896972656.235092163085938-2.524848937988281.5501708984375-.495475769042969.108917236328125-1.156898498535156.254669189453125-1.985641479492188.439056396484375-.828742980957031.184555053710938-1.329536437988281.297134399414062-1.502296447753906.3359375-.135978698730469.030563354492188-.271949768066406.061141967773438-.407913208007812.091781616210938-.296585083007812.066787719726562-.467086791992188.003128051757812-.510971069335938-.191070556640625-.027328491210938-.121002197265625.03009033203125-.21099853515625.1732177734375-.269363403320312.143272399902344-.057296752929688.634803771972656-.181564331054688,1.476631164550781-.369598388671875.390388488769531-.112213134765625.573493957519531-.28106689453125.550132751464844-.504898071289062-.025390625-.172760009765625-.05078125-.34552001953125-.076164245605469-.518280029296875-.754241943359375-3.389739990234375-1.50848388671875-6.779510498046875-2.262725830078125-10.169265747070312-.313438415527344-1.40887451171875-.711311340332031-2.33990478515625-1.194068908691406-2.79345703125-.482398986816406-.452621459960938-1.188377380371094-.575942993164062-2.115989685058594-.366424560546875-.928085327148438.209747314453125-1.636016845703125.6649169921875-2.12103271484375,1.363143920898438-.48486328125.699371337890625-.628189086914062,1.473297119140625-.432655334472656,2.32098388671875.793960571289062,3.44384765625,1.587890625,6.8876953125,2.381851196289062,10.331527709960938.168067932128906.728927612304688.321525573730469,1.146377563476562.461982727050781,1.254470825195312.140121459960938.108123779296875.514328002929688.091888427734375,1.123100280761719-.04736328125.097434997558594-.022293090820312.194862365722656-.044570922851562.292304992675781-.06683349609375.14019775390625-.056961059570312.271514892578125-.099990844726562.392967224121094-.127685546875.268142700195312-.061141967773438.423797607421875.005874633789062.467971801757812.20001220703125.038688659667969.17059326171875-.102424621582031.29254150390625-.423553466796875.36578369140625-.123497009277344.028152465820312-.246986389160156.056320190429688-.370460510253906.084518432617188-.5989990234375.11083984375-1.525680541992188.32305908203125-2.779388427734375.640411376953125-1.210174560546875.28125-2.419830322265625.5655517578125-3.628936767578125.852920532226562-.345726013183594.082122802734375-.541160583496094.026397705078125-.587387084960938-.1673583984375-.040573120117188-.170089721679688.0997314453125-.292861938476562.421058654785156-.3692626953125.937957763671875-.222869873046875,1.471954345703125-.392486572265625,1.599784851074219-.512863159179688.128746032714844-.118606567382812.179313659667969-.290023803710938.153106689453125-.514541625976562-.740058898925781-3.149581909179688-1.480125427246094-6.299118041992188-2.220191955566406-9.448699951171875-.426856994628906-1.816741943359375-.715156555175781-2.87359619140625-.864662170410156-3.17144775390625-.149688720703125-.296890258789062-.551895141601562-.369003295898438-1.20574951171875-.214218139648438-.176116943359375.041702270507812-.352188110351562.083450317382812-.528274536132812.125228881835938-.22650146484375.053756713867188-.465682983398438.110702514648438-.716720581054688.170547485351562-.327354431152344.078048706054688-.510902404785156.032608032226562-.551582336425781-.137359619140625-.03497314453125-.146255493164062.00146484375-.244338989257812.108818054199219-.296096801757812.107589721679688-.050750732421875.508682250976562-.1849365234375,1.203575134277344-.401931762695312.573875427246094-.1611328125,1.264732360839844-.47796630859375,2.072593688964844-.949905395507812.808807373046875-.470199584960938,1.255020141601562-.816909790039062,1.336204528808594-1.041351318359375.216094970703125-.331893920898438.386947631835938-.511672973632812.51348876953125-.540924072265625.127044677734375-.029281616210938.225051879882812.050216674804688.295547485351562.238449096679688.069740295410156.189254760742188.251914978027344.863906860351562.546676635742188,2.024612426757812.6495361328125-1.787216186523438,2.028900146484375-2.923751831054688,4.131675720214844-3.395233154296875,2.254486083984375-.50494384765625,3.8035888671875.013519287109375,4.639129638671875,1.540969848632812.628387451171875-1.84735107421875,2.03778076171875-3.009429931640625,4.220039367675781-3.471786499023438,1.877891540527344-.39752197265625,3.282905578613281-.012542724609375,4.209037780761719,1.146102905273438.495620727539062.610610961914062.90625,1.711746215820312,1.232879638671875,3.299514770507812.620941162109375,3.018173217773438,1.24188232421875,6.036331176757812,1.862831115722656,9.054489135742188.171051025390625.831268310546875.308090209960938,1.280609130859375.411048889160156,1.34814453125.103248596191406.068588256835938.502189636230469.056106567382812,1.196083068847656-.0345458984375.21990966796875-.044845581054688.4398193359375-.089584350585938.659759521484375-.134231567382812.26385498046875-.07855224609375.414566040039062-.0262451171875.451728820800781.15753173828125Z" style="fill: #0071bc;"/>
  <path d="M114.957015991210938,160.147369384765625c.075210571289062.418212890625-.287384033203125.93255615234375-1.084228515625,1.546768188476562-.796546936035156.61322021484375-1.602088928222656.996551513671875-2.417610168457031,1.147750854492188-1.707183837890625.316787719726562-2.760696411132812-.384078979492188-3.165245056152344-2.11077880859375-.599716186523438,1.992935180664062-1.8828125,3.176040649414062-3.858283996582031,3.5616455078125-1.062370300292969.207473754882812-2.000328063964844.068527221679688-2.816215515136719-.4173583984375-.8165283203125-.486724853515625-1.323348999023438-1.21746826171875-1.519760131835938-2.197097778320312-.402206420898438-2.004196166992188.502151489257812-3.843002319335938,2.7352294921875-5.500656127929688.768898010253906-.556060791015625,2.161018371582031-1.2340087890625,4.180816650390625-2.022750854492188-.057952880859375-.306411743164062-.11590576171875-.612838745117188-.173866271972656-.91925048828125-.407905578613281-2.157119750976562-.790657043457031-3.557662963867188-1.14898681640625-4.201370239257812-.6422119140625-1.173187255859375-1.675765991210938-1.62451171875-3.097175598144531-1.349761962890625-.889144897460938.17205810546875-1.5859375.54986572265625-2.089828491210938,1.131668090820312-.50506591796875.581787109375-.685745239257812,1.228973388671875-.545539855957031,1.937957763671875.038825988769531.19635009765625.212455749511719.263580322265625.521614074707031.20263671875.30859375-.060760498046875.615615844726562.03118896484375.920425415039062.276962280273438.304672241210938.244842529296875.49267578125.5513916015625.564666748046875.91943359375.210258483886719,1.077545166015625-.233161926269531,1.72265625-1.328880310058594,1.939117431640625-.573394775390625.11328125-1.083709716796875.017822265625-1.533546447753906-.2867431640625-.449798583984375-.304641723632812-.733230590820312-.750656127929688-.850868225097656-1.337631225585938-.230484008789062-1.149871826171875.037857055664062-2.23388671875.810333251953125-3.252548217773438.858482360839844-1.111083984375,2.217735290527344-1.8499755859375,4.072761535644531-2.207138061523438,2.794853210449219-.537445068359375,4.649620056152344-.1190185546875,5.555953979492188,1.234970092773438.333000183105469.522216796875.653297424316406,1.617095947265625.961875915527344,3.286026000976562.424240112304688,2.293777465820312.8485107421875,4.587539672851562,1.272758483886719,6.881332397460938.208915710449219,1.129318237304688.343666076660156,1.789566040039062.405242919921875,1.980804443359375.2879638671875.860519409179688.73052978515625,1.235366821289062,1.328407287597656,1.125686645507812.696426391601562-.127700805664062,1.225296020507812-.477828979492188,1.584945678710938-1.05010986328125.200553894042969-.315200805664062.363166809082031-.484359741210938.488174438476562-.506942749023438.124534606933594-.022491455078125.200340270996094.04034423828125.226829528808594.1873779296875ZM107.637680053710938,157.464370727539062c-.169273376464844-.894943237304688-.338539123535156-1.789871215820312-.5078125-2.684814453125-1.779205322265625.769073486328125-3.0040283203125,1.571746826171875-3.675773620605469,2.401870727539062-.671882629394531.830322265625-.895103454589844,1.809051513671875-.6739501953125,2.934844970703125.153938293457031.783828735351562.507102966308594,1.381271362304688,1.059463500976562,1.794647216796875.552421569824219.413345336914062,1.171058654785156.552536010742188,1.858291625976562.419998168945312,1.054374694824219-.2034912109375,1.787788391113281-.9525146484375,2.204948425292969-2.250091552734375.096420288085938-.297683715820312.008377075195312-1.169418334960938-.265167236328125-2.616455078125Z" style="fill: #0071bc;"/>
  <path d="M132.163009643554688,158.7540283203125c.028823852539062.184249877929688-.144302368164062.306259155273438-.5184326171875.364990234375-.149810791015625.023513793945312-.299560546875.047164916992188-.449371337890625.07080078125-.449356079101562.070938110351562-1.060775756835938.167709350585938-1.834243774414062.291793823242188-2.445167541503906.392669677734375-3.890754699707031.63470458984375-4.339683532714844.708984375-.087181091308594.014495849609375-.174339294433594.029022216796875-.261512756347656.043563842773438-.324554443359375.054107666015625-.500900268554688-.005462646484375-.529632568359375-.176849365234375-.020500183105469-.122390747070312.035438537597656-.208023071289062.169090270996094-.255035400390625.132469177246094-.047882080078125.608833312988281-.152313232421875,1.428573608398438-.313552856445312.469642639160156-.102310180664062.733680725097656-.214675903320312.790252685546875-.337890625.056541442871094-.123077392578125.028800964355469-.5281982421875-.083892822265625-1.21630859375-.386344909667969-2.358184814453125-.772697448730469-4.7164306640625-1.1590576171875-7.074615478515625-.438491821289062-2.67718505859375-.80181884765625-4.257415771484375-1.089462280273438-4.739654541015625-.613845825195312-1.034210205078125-1.5704345703125-1.4442138671875-2.868499755859375-1.226470947265625-1.273048400878906.213592529296875-2.250328063964844.93634033203125-2.927261352539062,2.163619995117188-.198776245117188.363189697265625-.24920654296875.82586669921875-.151817321777344,1.389755249023438.660675048828125,3.826522827148438,1.32135009765625,7.653060913085938,1.982040405273438,11.479568481445312.050849914550781.294586181640625.344352722167969.408111572265625.880851745605469.34088134765625.382217407226562-.05303955078125.76446533203125-.10577392578125,1.146720886230469-.158172607421875.253311157226562-.042984008789062.394973754882812.022048950195312.423919677734375.193511962890625.029136657714844.17138671875-.106040954589844.283447265625-.404975891113281.334213256835938-.199310302734375.033920288085938-.398605346679688.067886352539062-.597892761230469.1019287109375-.548591613769531.093780517578125-1.420524597167969.2431640625-2.616134643554688.451828002929688-.274452209472656.048004150390625-.865653991699219.151031494140625-1.774429321289062.311904907226562-.909278869628906.16094970703125-1.437767028808594.255950927734375-1.586814880371094.282638549804688-.074699401855469.013397216796875-.149391174316406.026763916015625-.224067687988281.040176391601562-.373641967773438.067062377929688-.573654174804688.025833129882812-.600883483886719-.12506103515625-.027053833007812-.149917602539062.179580688476562-.287521362304688.620315551757812-.411224365234375.323135375976562-.057937622070312.635177612304688-.113784790039062.934059143066406-.16693115234375.373916625976562-.066604614257812.5826416015625-.191696166992188.627197265625-.377212524414062.004859924316406-.190292358398438.009773254394531-.380569458007812.014678955078125-.57086181640625-.472671508789062-2.670730590820312-.945327758789062-5.341476440429688-1.417984008789062-8.01220703125-.494308471679688-2.793502807617188-.79327392578125-4.332351684570312-.89605712890625-4.61761474609375-.103233337402344-.285140991210938-.446250915527344-.376296997070312-1.029884338378906-.272232055664062-.177879333496094.031723022460938-.482215881347656.086044311523438-.913299560546875.16351318359375-.063560485839844.011428833007812-.127128601074219.022842407226562-.190689086914062.034286499023438-.50750732421875.091323852539062-.777664184570312.046035766601562-.810752868652344-.136550903320312-.042617797851562-.235443115234375.202987670898438-.401123046875.736282348632812-.49700927734375.757591247558594-.161056518554688,1.558403015136719-.443832397460938,2.405128479003906-.846084594726562.846229553222656-.402130126953125,1.420326232910156-.79364013671875,1.721267700195312-1.175979614257812.195037841796875-.236160278320312.35595703125-.365005493164062.483596801757812-.387222290039062.178024291992188-.03076171875.308135986328125.187530517578125.388740539550781.654251098632812.101943969726562.58990478515625.203872680664062,1.179779052734375.305816650390625,1.769668579101562,1.034721374511719-1.874404907226562,2.603981018066406-2.990707397460938,4.695068359375-3.337554931640625,1.835807800292969-.304428100585938,3.268379211425781.134475708007812,4.292228698730469,1.309295654296875.576828002929688.665130615234375,1.029281616210938,2.033843994140625,1.359352111816406,4.103363037109375.448104858398438,2.808883666992188.896224975585938,5.617752075195312,1.344345092773438,8.4266357421875.1258544921875.788848876953125.231842041015625,1.214019775390625.318740844726562,1.275299072265625.173187255859375.123641967773438.546478271484375.140365600585938,1.12127685546875.049545288085938.0753173828125-.01190185546875.212158203125-.033447265625.412521362304688-.065017700195312.087326049804688-.01373291015625.174667358398438-.0274658203125.261993408203125-.041168212890625.249313354492188-.039108276367188.387557983398438.022262573242188.412673950195312.182464599609375Z" style="fill: #0071bc;"/>
  <path d="M150.1705322265625,155.612380981445312c.022705078125.173385620117188-.141265869140625.282455444335938-.49176025390625.328903198242188-.062576293945312.008255004882812-.125167846679688.016555786132812-.187728881835938.024856567382812-.201080322265625.02655029296875-.4130859375.054931640625-.638580322265625.084945678710938-.100143432617188.01336669921875-.200271606445312.026763916015625-.300384521484375.040145874023438-1.227523803710938.164413452148438-2.234634399414062.544570922851562-3.018280029296875,1.138824462890625-.324050903320312.238906860351562-.522933959960938.364273071289062-.597824096679688.374664306640625-.22491455078125.031341552734375-.358306884765625-.101959228515625-.399551391601562-.397933959960938-.040863037109375-.384750366210938-.081695556640625-.769515991210938-.122512817382812-1.154281616210938-.92938232421875,1.212203979492188-2.12738037109375,1.923751831054688-3.601119995117188,2.137039184570312-2.097915649414062.303573608398438-3.943801879882812-.237594604492188-5.551483154296875-1.62835693359375-1.607040405273438-1.390548706054688-2.608291625976562-3.320877075195312-2.991485595703125-5.797393798828125-.39471435546875-2.550521850585938-.025543212890625-4.725173950195312,1.121231079101562-6.522369384765625,1.14642333984375-1.795852661132812,2.8502197265625-2.861923217773438,5.099563598632812-3.186935424804688,1.737625122070312-.250869750976562,3.127975463867188.171524047851562,4.163864135742188,1.261734008789062-.268356323242188-1.927688598632812-.536727905273438-3.855392456054688-.805099487304688-5.7830810546875-.2613525390625-1.87744140625-.512481689453125-3.027618408203125-.75244140625-3.447677612304688-.20489501953125-.349029541015625-.458526611328125-.489105224609375-.760482788085938-.42205810546875-.728713989257812.178390502929688-1.169143676757812.278579711914062-1.321273803710938.300201416015625-.33203125.047195434570312-.51318359375-.040328979492188-.544967651367188-.262619018554688-.031753540039062-.222381591796875.093460083007812-.353790283203125.376205444335938-.393966674804688.464126586914062-.053268432617188.928268432617188-.106063842773438,1.392440795898438-.158493041992188.773452758789062-.083831787109375,1.906204223632812-.5948486328125,3.404159545898438-1.52862548828125.096145629882812-.063278198242188.182479858398438-.100723266601562.260040283203125-.111160278320312.257537841796875-.034896850585938.42633056640625.244857788085938.506439208984375.838134765625.019912719726562.14764404296875.055068969726562.40789794921875.105072021484375.778579711914062.053359985351562.39593505859375.100204467773438.7423095703125.14013671875,1.0384521484375.575607299804688,4.265350341796875,1.151229858398438,8.530731201171875,1.726852416992188,12.796096801757812.791091918945312,5.860885620117188,1.265090942382812,8.994583129882812,1.42205810546875,9.401123046875.072845458984375.16680908203125.6739501953125.172760009765625,1.801483154296875.023483276367188.350814819335938-.046401977539062.539321899414062.029251098632812.5654296875.227767944335938ZM143.314956665039062,147.060501098632812c-.330154418945312-2.372650146484375-.808364868164062-3.855133056640625-1.438201904296875-4.447250366210938-.805877685546875-.742752075195312-1.747222900390625-1.038864135742188-2.819503784179688-.884658813476562-1.37921142578125.198501586914062-2.37628173828125,1.051986694335938-2.985595703125,2.55401611328125-.609909057617188,1.504302978515625-.737045288085938,3.415557861328125-.38922119140625,5.734344482421875.33306884765625,2.22027587890625.970855712890625,4.067840576171875,1.90740966796875,5.542877197265625.400192260742188.621780395507812.925552368164062,1.105819702148438,1.576766967773438,1.45037841796875.65093994140625.346755981445312,1.288909912109375.473983764648438,1.914276123046875.383819580078125.774688720703125-.111618041992188,1.44219970703125-.439529418945312,2.003799438476562-.9853515625.561187744140625-.544815063476562.89190673828125-1.151901245117188.990386962890625-1.820465087890625.098281860351562-.668472290039062-.154708862304688-3.177993774414062-.760116577148438-7.5277099609375Z" style="fill: #0071bc;"/>
  <path d="M166.132003784179688,152.742828369140625c.046279907226562.42230224609375-.349594116210938.91046142578125-1.1845703125,1.468338012695312-.834457397460938.557022094726562-1.662429809570312.883773803710938-2.484283447265625.97833251953125-1.720489501953125.198196411132812-2.721160888671875-.573593139648438-3.00592041015625-2.323959350585938-.732620239257812,1.94671630859375-2.090133666992188,3.03851318359375-4.082046508789062,3.286834716796875-1.071395874023438.133636474609375-1.994918823242188-.0697021484375-2.773635864257812-.610748291015625-.779220581054688-.541824340820312-1.233779907226562-1.305892944335938-1.362350463867188-2.296676635742188-.2635498046875-2.027191162109375.761444091796875-3.799041748046875,3.096405029296875-5.298477172851562.803192138671875-.501449584960938,2.234375-1.081893920898438,4.298065185546875-1.729415893554688-.036788940429688-.309677124023438-.073562622070312-.619338989257812-.110336303710938-.92901611328125-.258819580078125-2.179977416992188-.54412841796875-3.603561401367188-.856887817382812-4.270462036132812-.559051513671875-1.214614868164062-1.556793212890625-1.736160278320312-2.989898681640625-1.560150146484375-.896484375.110183715820312-1.61553955078125.439254760742188-2.15655517578125.984695434570312-.542037963867188.545639038085938-.766098022460938,1.178787231445312-.674896240234375,1.895584106445312.0252685546875.198486328125.193511962890625.277679443359375.50518798828125.238143920898438.311294555664062-.039337158203125.610336303710938.0736083984375.896942138671875.339828491210938.286468505859375.265228271484375.452728271484375.584075927734375.4991455078125.9561767578125.135787963867188,1.089370727539062-.349288940429688,1.702407836914062-1.454376220703125,1.842697143554688-.578109741210938.073440551757812-1.079452514648438-.056991577148438-1.506271362304688-.391952514648438-.426666259765625-.33489990234375-.678466796875-.799407958984375-.755416870117188-1.393096923828125-.1510009765625-1.1629638671875.18994140625-2.2259521484375,1.027923583984375-3.188705444335938.92987060546875-1.0491943359375,2.33270263671875-1.692413330078125,4.202880859375-1.920684814453125,2.81768798828125-.343246459960938,4.63507080078125.201950073242188,5.444595336914062,1.61517333984375.295822143554688.543930053710938.539840698242188,1.658187866210938.733139038085938,3.34442138671875.265777587890625,2.317489624023438.53155517578125,4.634994506835938.797317504882812,6.952468872070312.13092041015625,1.140960693359375.21990966796875,1.8089599609375.268218994140625,2.00396728515625.22796630859375.878280639648438.6427001953125,1.282791137695312,1.245223999023438,1.214569091796875.701873779296875-.07940673828125,1.251922607421875-.392333984375,1.649002075195312-.9383544921875.221145629882812-.30059814453125.394424438476562-.458221435546875.52044677734375-.472091674804688.125396728515625-.013824462890625.196685791015625.0540771484375.21295166015625.202560424804688ZM159.030914306640625,149.56170654296875c-.107421875-.904464721679688-.21484375-1.808883666992188-.322265625-2.713348388671875-1.822982788085938.64447021484375-3.096511840820312,1.360687255859375-3.821395874023438,2.1424560546875-.725143432617188.781967163085938-1.013992309570312,1.742904663085938-.870651245117188,2.881210327148438.099639892578125.792587280273438.41033935546875,1.412918090820312.931838989257812,1.863418579101562.521377563476562.450546264648438,1.127609252929688.632217407226562,1.8204345703125.547225952148438,1.06292724609375-.130294799804688,1.843902587890625-.826858520507812,2.347488403320312-2.092544555664062.11627197265625-.290115356445312.088104248046875-1.166061401367188-.08544921875-2.62841796875Z" style="fill: #0071bc;"/>
  <path d="M206.194686889648438,125.3817138671875c.011566162109375.212173461914062-.424774169921875.353790283203125-1.307449340820312.426605224609375-.987319946289062.079757690429688-1.625961303710938.42919921875-1.915359497070312,1.045761108398438-.290283203125.617599487304688-.71527099609375,1.917282104492188-1.269683837890625,3.900650024414062-.958038330078125,3.482131958007812-1.802703857421875,6.447494506835938-2.543167114257812,8.894668579101562-1.268386840820312,4.18316650390625-2.380661010742188,8.222808837890625-3.345306396484375,12.117034912109375-.08074951171875.330780029296875-.198150634765625.5013427734375-.352569580078125.512298583984375-.12890625.009002685546875-.2601318359375-.10601806640625-.393722534179688-.345123291015625-.133758544921875-.23907470703125-.535797119140625-1.081024169921875-1.21197509765625-2.524246215820312-.843276977539062-1.893218994140625-1.756118774414062-3.793243408203125-2.7388916015625-5.698287963867188-.774322509765625-1.495712280273438-1.543365478515625-3.041000366210938-2.306930541992188-4.635848999023438-1.453460693359375,4.343963623046875-2.8494873046875,8.87701416015625-4.184951782226562,13.598953247070312-.075973510742188.305389404296875-.189651489257812.46405029296875-.34149169921875.47705078125-.126724243164062.010848999023438-.296707153320312-.187301635742188-.509567260742188-.594329833984375-.94842529296875-1.769500732421875-4.452667236328125-9.15203857421875-10.900833129882812-22.035781860351562-.454925537109375-.908233642578125-.785736083984375-1.47027587890625-.990310668945312-1.689468383789062-.20489501953125-.21722412109375-.6712646484375-.30255126953125-1.399810791015625-.254791259765625-1.250198364257812.076095581054688-1.891006469726562-.032852172851562-1.92181396484375-.330734252929688-.023086547851562-.223434448242188.173660278320312-.356666564941406.588958740234375-.399208068847656.181976318359375-.018630981445312.33819580078125-.02130126953125.4713134765625-.010299682617188,1.383255004882812-.065643310546875,2.867111206054688-.175018310546875,4.452072143554688-.327156066894531.31158447265625-.029884338378906.848114013671875-.106269836425781,1.609527587890625-.228240966796875.76165771484375-.120903015136719,1.75335693359375-.238380432128906,2.975204467773438-.348381042480469.142929077148438-.012855529785156.285842895507812-.025672912597656.42877197265625-.0384521484375.442031860351562-.039451599121094.672897338867188.055366516113281.693099975585938.283454895019531.024703979492188.279708862304688-.361831665039062.46661376953125-1.158248901367188.563751220703125-1.594512939453125.194923400878906-2.37445068359375.472824096679688-2.341201782226562.828445434570312.053009033203125.699615478515625,3.092071533203125,6.934112548828125,8.782806396484375,18.800369262695312,1.338577270507812-4.341796875,2.367630004882812-7.5391845703125,3.0538330078125-9.5946044921875-1.515914916992188-3.08538818359375-3.047500610351562-6.166412353515625-4.59466552734375-9.242904663085938-.252227783203125-.503143310546875-.522247314453125-.817535400390625-.808807373046875-.943191528320312-.286407470703125-.124649047851562-.796630859375-.16961669921875-1.529144287109375-.131553649902344-.733383178710938.040138244628906-1.108200073242188-.040260314941406-1.12567138671875-.237800598144531-.024169921875-.272811889648438.236572265625-.433212280273438.782455444335938-.48077392578125.4156494140625-.03619384765625.925079345703125-.054718017578125,1.527481079101562-.056549072265625.60205078125-.000694274902344,1.643768310546875-.064079284667969,3.126052856445312-.184295654296875.987960815429688-.080101013183594,1.976028442382812-.158271789550781,2.964187622070312-.234580993652344,1.430282592773438-.110420227050781,2.860794067382812-.216896057128906,4.29150390625-.319412231445312.962142944335938-.068931579589844,2.117630004882812-.190040588378906,3.465362548828125-.360877990722656.154953002929688-.030067443847656.336196899414062-.052345275878906.544509887695312-.066215515136719.625076293945312-.041465759277344.945846557617188.069908142089844.962844848632812.331520080566406.0155029296875.235893249511719-.198333740234375.368034362792969-.639968872070312.397262573242188-.22100830078125.014610290527344-.4420166015625.029319763183594-.663009643554688.044097900390625-1.17034912109375.078407287597656-2.04449462890625.289192199707031-2.620269775390625.629203796386719-.251419067382812.143943786621094-.669296264648438,1.072166442871094-1.247833251953125,2.788215637207031-.263748168945312.719207763671875-.700210571289062,1.9384765625-1.3046875,3.6578369140625-.123870849609375.386215209960938-.30889892578125.965072631835938-.554458618164062,1.736587524414062.216201782226562.484222412109375.883590698242188,1.823486328125,1.9901123046875,4.021194458007812,1.425750732421875,2.792266845703125,2.592620849609375,5.1932373046875,3.5126953125,7.200927734375,1.146621704101562-4.128799438476562,2.519393920898438-9.006271362304688,4.147979736328125-14.629287719726562.861373901367188-2.9937744140625,1.290878295898438-4.652069091796875,1.270553588867188-4.977668762207031-.028427124023438-.474693298339844-.497940063476562-.685447692871094-1.407928466796875-.62908935546875-1.274673461914062.079299926757812-1.920242309570312-.017227172851562-1.938064575195312-.292747497558594-.016128540039062-.24945068359375.235580444335938-.392059326171875.756698608398438-.425193786621094.442123413085938-.028106689453125.794754028320312-.032974243164062,1.057052612304688-.016494750976562.576766967773438.030715942382812,1.099258422851562.0325927734375,1.567916870117188.004432678222656,1.041183471679688-.062591552734375,2.082443237304688-.123077392578125,3.123809814453125-.181480407714844.780960083007812-.043746948242188,1.212173461914062-.037094116210938,1.293792724609375.017036437988281.081192016601562.054702758789062.123367309570312.116989135742188.127197265625.187713623046875ZM189.7218017578125,126.880638122558594c-.15594482421875.011810302734375-.3118896484375.023635864257812-.46783447265625.035537719726562-.220855712890625.016838073730469-.44171142578125.033775329589844-.662567138671875.050811767578125-.931304931640625.122886657714844-1.386077880859375.321723937988281-1.3642578125.597183227539062.00250244140625.050102233886719.943634033203125,2.151298522949219,2.786117553710938,6.311515808105469.493484497070312-1.290145874023438,1.062820434570312-2.985885620117188,1.711044311523438-5.086669921875.087051391601562-.281494140625.221664428710938-.65167236328125.404037475585938-1.1143798828125.019561767578125-.101287841796875.039093017578125-.20257568359375.058639526367188-.303863525390625-.03204345703125-.44476318359375-.85406494140625-.611724853515625-2.465179443359375-.490135192871094Z" style="fill: #0071bc;"/>
  <path d="M223.217239379882812,142.261444091796875c.07952880859375,2.418899536132812-.603363037109375,4.469741821289062-2.0335693359375,6.155838012695312-1.431625366210938,1.686492919921875-3.247055053710938,2.57379150390625-5.460617065429688,2.669967651367188-2.289291381835938.099533081054688-4.237960815429688-.623764038085938-5.860549926757812-2.176986694335938-1.62286376953125-1.552749633789062-2.50677490234375-3.535018920898438-2.638107299804688-5.951614379882812-.135269165039062-2.491119384765625.510543823242188-4.6016845703125,1.953079223632812-6.324325561523438,1.440841674804688-1.722427368164062,3.314498901367188-2.638137817382812,5.605850219726562-2.73828125,2.31658935546875-.101181030273438,4.2879638671875.652969360351562,5.900772094726562,2.254928588867188,1.612289428710938,1.603347778320312,2.452041625976562,3.642318725585938,2.53314208984375,6.1104736328125ZM219.741607666015625,142.34710693359375c-.103042602539062-2.743087768554688-.617568969726562-4.858383178710938-1.549591064453125-6.345489501953125-.685821533203125-1.096832275390625-1.789581298828125-1.614013671875-3.30718994140625-1.547943115234375-1.4405517578125.062744140625-2.533447265625.831878662109375-3.27178955078125,2.303375244140625-.739212036132812,1.4727783203125-1.042587280273438,3.4798583984375-.916275024414062,6.021514892578125.125030517578125,2.517501831054688.647003173828125,4.458419799804688,1.560516357421875,5.825469970703125.912979125976562,1.3680419921875,2.121719360351562,2.016387939453125,3.63226318359375,1.951095581054688,1.1573486328125-.049942016601562,1.9954833984375-.519515991210938,2.5162353515625-1.414993286132812.993698120117188-1.6871337890625,1.442489624023438-3.951141357421875,1.335830688476562-6.79302978515625Z" style="fill: #0071bc;"/>
  <path d="M233.151016235351562,149.822158813476562c.004486083984375.224563598632812-.157318115234375.340103149414062-.484634399414062.346893310546875-.151168823242188.003158569335938-.302322387695312.006362915039062-.453475952148438.00958251953125-.050857543945312.001174926757812-.718124389648438-.010665893554688-2.00390625-.029647827148438-.390396118164062.009384155273438-.780776977539062.019088745117188-1.171157836914062.029098510742188-.2020263671875.005569458007812-1.208709716796875.048568725585938-3.020751953125.13922119140625-.150863647460938.0172119140625-.301651000976562.028472900390625-.452804565429688.033096313476562-.37677001953125.035919189453125-.569122314453125-.062744140625-.576522827148438-.29888916015625-.005035400390625-.163055419921875.13092041015625-.249267578125.40863037109375-.257781982421875.327423095703125-.009979248046875.654937744140625-.019744873046875.982421875-.029296875.705276489257812-.020523071289062,1.054550170898438-.180313110351562,1.04644775390625-.479171752929688.020462036132812-.149978637695312.006332397460938-1.123672485351562-.0433349609375-2.918869018554688-.17584228515625-6.347824096679688-.3516845703125-12.695632934570312-.527542114257812-19.04345703125-.022735595703125-.822921752929688-.061248779296875-1.271286010742188-.115142822265625-1.344001770019531-.083389282226562-.196929931640625-.294845581054688-.291732788085938-.632354736328125-.282089233398438-.104156494140625.002975463867188-.2083740234375.0059814453125-.312515258789062.009010314941406-.364105224609375.01055908203125-.7281494140625.0213623046875-1.092254638671875.032455444335938-.36431884765625.011077880859375-.549407958984375-.088638305664062-.5560302734375-.301406860351562-.005889892578125-.1873779296875.316131591796875-.30517578125.966079711914062-.34796142578125,1.247100830078125-.111518859863281,2.39752197265625-.417381286621094,3.454360961914062-.918487548828125.270492553710938-.131591796875.541152954101562-.263031005859375.811965942382812-.394325256347656.103347778320312-.039955139160156.206741333007812-.079902648925781.310089111328125-.119819641113281.225616455078125.718482971191406.342376708984375,1.814140319824219.351654052734375,3.286033630371094.020858764648438.885498046875.041732788085938,1.771003723144531.0626220703125,2.656486511230469.14404296875,6.111251831054688.288116455078125,12.222488403320312.43218994140625,18.333755493164062.017669677734375.74786376953125.040435791015625,1.190765380859375.068801879882812,1.326873779296875.0279541015625.137115478515625.118927001953125.2286376953125.271530151367188.274978637695312.025360107421875.024978637695312.49249267578125.038070678710938,1.400650024414062.0430908203125.579620361328125-.012435913085938.871429443359375.069931030273438.874984741210938.24462890625Z" style="fill: #0071bc;"/>
  <path d="M251.562088012695312,149.190444946289062c-.000747680664062.174835205078125-.178909301757812.26092529296875-.530960083007812.259597778320312-.063003540039062-.000259399414062-.125991821289062-.000473022460938-.188980102539062-.00067138671875-.20233154296875-.000640869140625-.415802001953125-.00128173828125-.642837524414062-.001907348632812-.100830078125-.000259399414062-.20159912109375-.000473022460938-.30242919921875-.000717163085938-1.235916137695312-.002593994140625-2.282577514648438.23834228515625-3.137222290039062.721527099609375-.352493286132812.193145751953125-.565994262695312.290435791015625-.641372680664062.2906494140625-.2265625.000595092773438-.340545654296875-.149307250976562-.341445922851562-.448150634765625.011367797851562-.386764526367188.022750854492188-.773513793945312.034133911132812-1.1602783203125-1.081802368164062,1.075851440429688-2.361618041992188,1.619369506835938-3.846954345703125,1.631927490234375-2.114242553710938.017852783203125-3.865859985351562-.767242431640625-5.267379760742188-2.362213134765625-1.401046752929688-1.594573974609375-2.130783081054688-3.642303466796875-2.176528930664062-6.147964477539062-.047119140625-2.580322265625.6097412109375-4.685455322265625,1.984710693359375-6.311477661132812,1.374267578125-1.624679565429688,3.201324462890625-2.451248168945312,5.468231201171875-2.470001220703125,1.751174926757812-.014358520507812,3.068649291992188.591812133789062,3.946151733398438,1.811660766601562-.005996704101562-1.946273803710938-.012039184570312-3.892562866210938-.01806640625-5.838821411132812-.005752563476562-1.895431518554688-.099349975585938-3.069046020507812-.280120849609375-3.517662048339844-.155563354492188-.373458862304688-.387496948242188-.546432495117188-.694992065429688-.520729064941406-.744277954101562.078445434570312-1.193038940429688.118331909179688-1.346435546875.119300842285156-.334609985351562.0020751953125-.501937866210938-.109054565429688-.50335693359375-.333702087402344-.001617431640625-.224578857421875.139923095703125-.337875366210938.424850463867188-.339653015136719.465911865234375.009819030761719.931854248046875.020057678222656,1.397689819335938.030723571777344.775848388671875.021102905273438,1.964324951171875-.332489013671875,3.5709228515625-1.055717468261719.103729248046875-.049766540527344.19390869140625-.075187683105469.272079467773438-.075088500976562.25921630859375.000175476074219.38873291015625.300086975097656.387939453125.898765563964844-.000228881835938.148918151855469-.000503540039062.411689758300781-.0008544921875.78564453125-.000381469726562.399444580078125-.000778198242188.7490234375-.001129150390625,1.047843933105469-.004653930664062,4.304039001464844-.009292602539062,8.608055114746094-.013961791992188,12.912086486816406-.006362915039062,5.913955688476562.040908813476562,9.083084106445312.141342163085938,9.507003784179688.049835205078125.17498779296875.64300537109375.262054443359375,1.778060913085938.266098022460938.352447509765625.001388549804688.52972412109375.101669311523438.528915405273438.301925659179688ZM245.934036254882812,139.792434692382812c-.007293701171875-2.395431518554688-.28070068359375-3.928878784179688-.8236083984375-4.600555419921875-.696548461914062-.844772338867188-1.587509155273438-1.264968872070312-2.667984008789062-1.25677490234375-1.38983154296875.010604858398438-2.490203857421875.721878051757812-3.294189453125,2.128036499023438-.805130004882812,1.408218383789062-1.187637329101562,3.284957885742188-1.155624389648438,5.629440307617188.030471801757812,2.244918823242188.412582397460938,4.161605834960938,1.139724731445312,5.749481201171875.31182861328125.670028686523438.765899658203125,1.220474243164062,1.363235473632812,1.649810791015625.596817016601562.431304931640625,1.210220336914062.64337158203125,1.84039306640625.638473510742188.78070068359375-.006179809570312,1.48455810546875-.241012573242188,2.113143920898438-.706161499023438.627960205078125-.46417236328125,1.036590576171875-1.0211181640625,1.223831176757812-1.670303344726562.187179565429688-.649154663085938.274337768554688-3.169845581054688.261077880859375-7.561447143554688Z" style="fill: #0071bc;"/>
  <path d="M264.28033447265625,145.335861206054688c-.030792236328125,1.449996948242188-.592071533203125,2.669265747070312-1.674652099609375,3.661422729492188-1.084747314453125.992218017578125-2.360504150390625,1.47711181640625-3.83544921875,1.456451416015625-.850433349609375-.011810302734375-1.883697509765625-.32476806640625-3.104095458984375-.935394287109375-.324874877929688-.177017211914062-.611282348632812-.267532348632812-.862014770507812-.269699096679688-.350265502929688-.003067016601562-.616165161132812.232223510742188-.793975830078125.704498291015625-.102935791015625.298995971679688-.240875244140625.447402954101562-.41632080078125.446182250976562-.17449951171875-.001190185546875-.261505126953125-.102294921875-.260116577148438-.301589965820312.000946044921875-.125106811523438.001922607421875-.274398803710938.003021240234375-.44921875.00335693359375-.498123168945312.0081787109375-1.234268188476562.01483154296875-2.20794677734375.000534057617188-.07421875.002334594726562-.37408447265625.006027221679688-.898422241210938.00347900390625-.523361206054688.005859375-.873001098632812.007034301757812-1.047821044921875.00091552734375-.137039184570312.0018310546875-.274093627929688.002761840820312-.4111328125.001739501953125-.274337768554688.09124755859375-.411514282226562.268875122070312-.410263061523438.20257568359375.0013427734375.315704345703125.14093017578125.339447021484375.417526245117188.143112182617188,1.157302856445312.464950561523438,2.065109252929688.9654541015625,2.722808837890625.998306274414062,1.315658569335938,2.338165283203125,1.982559204101562,4.0263671875,2.006484985351562.907196044921875.012893676757812,1.641815185546875-.236801147460938,2.205810546875-.752639770507812.5638427734375-.515823364257812.85455322265625-1.210617065429688.870574951171875-2.085525512695312.017791748046875-.975326538085938-.285003662109375-1.755630493164062-.908905029296875-2.342529296875-.34991455078125-.331146240234375-.6702880859375-.566864013671875-.9593505859375-.709121704101562-.29034423828125-.142120361328125-1.14227294921875-.488037109375-2.559234619140625-1.030075073242188-2.8089599609375-1.084503173828125-4.21588134765625-2.66522216796875-4.202362060546875-4.766693115234375.009414672851562-1.40020751953125.499404907226562-2.572265625,1.476593017578125-3.514175415039062.976959228515625-.941757202148438,2.184417724609375-1.405227661132812,3.615966796875-1.386245727539062.509979248046875.0069580078125,1.275238037109375.166778564453125,2.2908935546875.483184814453125.254669189453125.078414916992188.483673095703125.120315551757812.6881103515625.12384033203125.53582763671875.009246826171875.87286376953125-.23455810546875,1.00994873046875-.731124877929688.081207275390625-.24761962890625.198394775390625-.370452880859375.351898193359375-.36749267578125.17864990234375.003372192382812.266357421875.104751586914062.262542724609375.303909301757812-.00067138671875.025360107421875-.00189208984375.10064697265625-.00433349609375.224563598632812-.0101318359375.52398681640625-.02020263671875,1.0479736328125-.03033447265625,1.571975708007812-.037750244140625.598037719726562.008331298828125,1.560043334960938.1368408203125,2.885025024414062-.00048828125.025054931640625-.0009765625.05010986328125-.00146484375.075180053710938-.00396728515625.1993408203125-.1090087890625.296722412109375-.3133544921875.292816162109375-.153289794921875-.002899169921875-.338348388671875-.38348388671875-.555145263671875-1.143417358398438-.2652587890625-.911285400390625-.7464599609375-1.649627685546875-1.443572998046875-2.215911865234375-.698028564453125-.565292358398438-1.511138916015625-.854995727539062-2.437744140625-.867355346679688-.87530517578125-.011611938476562-1.5986328125.243026733398438-2.169647216796875.762435913085938-.571014404296875.519561767578125-.85919189453125,1.180084228515625-.866744995117188,1.979812622070312-.011505126953125,1.250274658203125.836685180664062,2.20703125,2.539871215820312,2.878738403320312,2.643096923828125,1.059524536132812,4.309112548828125,1.943161010742188,5.008392333984375,2.63134765625.8997802734375.892654418945312,1.33404541015625,1.966018676757812,1.30755615234375,3.215591430664062Z" style="fill: #0071bc;"/>
  <path d="M280.596771240234375,146.543533325195312c-.010894775390625.2489013671875-.225799560546875.6832275390625-.644287109375,1.302001953125-.418365478515625.619720458984375-.837799072265625,1.120330810546875-1.256561279296875,1.503189086914062-1.129150390625,1.052993774414062-2.59588623046875,1.544906616210938-4.407196044921875,1.482162475585938-2.26513671875-.078399658203125-4.1328125-.944183349609375-5.616302490234375-2.607070922851562-1.483856201171875-1.662582397460938-2.204681396484375-3.688125610351562-2.147430419921875-6.082199096679688.05987548828125-2.494155883789062.84210205078125-4.560989379882812,2.3641357421875-6.192779541015625,1.520355224609375-1.630447387695312,3.394989013671875-2.412307739257812,5.608917236328125-2.33673095703125,1.827911376953125.062454223632812,3.341278076171875.638381958007812,4.533111572265625,1.72216796875,1.191314697265625,1.084854125976562,1.787933349609375,2.440383911132812,1.794403076171875,4.0640869140625-.823486328125.089950561523438-1.9100341796875.094680786132812-3.263336181640625.017135620117188-.894378662109375-.03436279296875-1.788787841796875-.067138671875-2.6832275390625-.098373413085938-.178955078125-.005386352539062-1.713623046875-.025527954101562-4.60321044921875-.035369873046875-.151611328125.81732177734375-.237060546875,1.59832763671875-.258270263671875,2.343154907226562-.071624755859375,2.510787963867188.361663818359375,4.456222534179688,1.29364013671875,5.839614868164062.931549072265625,1.384750366210938,2.276641845703125,2.104415893554688,4.040557861328125,2.167800903320312,1.008270263671875.036361694335938,1.823516845703125-.157241821289062,2.4464111328125-.582260131835938.622955322265625-.425155639648438,1.313140869140625-1.258285522460938,2.075836181640625-2.499984741210938.109527587890625-.1947021484375.252349853515625-.289520263671875.429779052734375-.281967163085938.2032470703125.0086669921875.300537109375.100738525390625.29302978515625.275421142578125ZM277.586700439453125,138.779251098632812c.01318359375-2.994430541992188-1.035400390625-4.534805297851562-3.146087646484375-4.607254028320312-2.08526611328125-.070846557617188-3.43072509765625,1.388534545898438-4.028106689453125,4.3653564453125,2.3916015625.069381713867188,4.7830810546875.150009155273438,7.1741943359375.241897583007812Z" style="fill: #0071bc;"/>
  <path d="M292.97308349609375,149.049545288085938c-.0133056640625.224197387695312-.35211181640625.604141235351562-1.01568603515625,1.139633178710938-1.14019775390625.909011840820312-2.44903564453125,1.322280883789062-3.932464599609375,1.24365234375-1.382965087890625-.0732421875-2.409454345703125-.47314453125-3.0806884765625-1.204086303710938-.383819580078125-.416473388671875-.529144287109375-1.59478759765625-.43609619140625-3.53497314453125l.5335693359375-11.1141357421875c-.014251708984375-.249969482421875-.148284912109375-.393280029296875-.404693603515625-.430908203125-.48809814453125-.023162841796875-.97625732421875-.045867919921875-1.46441650390625-.068084716796875-.565216064453125-.025711059570312-.844024658203125-.124893188476562-.8363037109375-.299606323242188.00775146484375-.17364501953125.15203857421875-.26788330078125.435028076171875-.279678344726562,1.999603271484375-.086944580078125,3.604339599609375-.96728515625,4.82183837890625-2.649627685546875.165008544921875-.219345092773438.363922119140625-.322616577148438.59442138671875-.310684204101562.180084228515625.009323120117188.264984130859375.100906372070312.256134033203125.275405883789062-.002593994140625.049713134765625-.005218505859375.0994873046875-.0078125.149200439453125-.00665283203125.124832153320312-.0177001953125.336471557617188-.033172607421875.6358642578125-.05474853515625,1.0465087890625-.03826904296875,1.722015380859375.048675537109375,2.025802612304688.228729248046875.062820434570312.612945556640625.107498168945312,1.15338134765625.136611938476562,1.413726806640625.076385498046875,2.356231689453125.0679931640625,2.826263427734375-.030227661132812.102996826171875-.018524169921875.194671630859375-.02593994140625.2718505859375-.021453857421875.205474853515625.011871337890625.301849365234375.12518310546875.28924560546875.339630126953125-.021270751953125.359222412109375-1.070831298828125.474884033203125-3.152099609375.3614501953125-.359832763671875-.01953125-.885772705078125-.0478515625-1.5797119140625-.084091186523438-.120330810546875,2.3048095703125-.240570068359375,4.609619140625-.36090087890625,6.914413452148438-.18206787109375,3.4893798828125-.20794677734375,5.680450439453125-.07763671875,6.573287963867188.13055419921875.8948974609375.6868896484375,1.36676025390625,1.668731689453125,1.420639038085938.831146240234375.045562744140625,1.788360595703125-.3631591796875,2.87713623046875-1.2237548828125.107757568359375-.118820190429688.225616455078125-.174545288085938.351776123046875-.167129516601562.176025390625.010406494140625.26104736328125.078155517578125.253631591796875.202850341796875Z" style="fill: #0071bc;"/>
  <path d="M310.060028076171875,152.249908447265625c-.016571044921875.199478149414062-.238128662109375.281143188476562-.664886474609375.246261596679688-.20159912109375-.016510009765625-.39031982421875-.031829833984375-.5655517578125-.045944213867188-.880279541015625-.070556640625-2.840728759765625-.229949951171875-5.88189697265625-.452392578125-.13812255859375-.010055541992188-.276123046875-.020126342773438-.41424560546875-.03009033203125-.32745361328125-.023727416992188-.48419189453125-.134780883789062-.46966552734375-.333465576171875.0125732421875-.174209594726562.49652099609375-.227157592773438,1.453521728515625-.156723022460938.57781982421875.042709350585938.91595458984375-.000595092773438,1.014739990234375-.130203247070312.097900390625-.129791259765625.17742919921875-.591949462890625.236968994140625-1.38653564453125.18939208984375-2.519241333007812.37890625-5.038528442382812.56829833984375-7.557769775390625.169769287109375-2.258209228515625.173248291015625-3.668304443359375.00970458984375-4.2308349609375-.350311279296875-1.173904418945312-1.270904541015625-1.816635131835938-2.759979248046875-1.922515869140625-1.2318115234375-.087417602539062-2.26995849609375.378250122070312-3.110504150390625,1.393646240234375-.2801513671875.330718994140625-.45855712890625,1.092864990234375-.53778076171875,2.284652709960938-.210723876953125,3.166824340820312-.421478271484375,6.333633422851562-.6322021484375,9.500473022460938-.044525146484375.67047119140625-.058380126953125,1.0560302734375-.039337158203125,1.15716552734375.008026123046875.250244140625.100128173828125.399139404296875.273895263671875.448944091796875.1727294921875.048828125.7127685546875.11614990234375,1.61700439453125.20306396484375.301422119140625.020843505859375.446075439453125.13092041015625.432281494140625.32958984375-.01190185546875.1734619140625-.14398193359375.252227783203125-.396148681640625.234786987304688-.125640869140625-.008697509765625-.251312255859375-.017364501953125-.376922607421875-.026016235351562-.9930419921875-.068283081054688-1.9862060546875-.134567260742188-2.979522705078125-.198898315429688-2.08636474609375-.160171508789062-3.24334716796875-.228134155273438-3.471405029296875-.216766357421875-.125946044921875-.007598876953125-.251983642578125-.01513671875-.3780517578125-.02264404296875-.27685546875-.0164794921875-.41009521484375-.1005859375-.401153564453125-.251739501953125.01019287109375-.172515869140625.15338134765625-.25115966796875.430145263671875-.234695434570312.188812255859375.011276245117188.377655029296875.022598266601562.566497802734375.033981323242188.189605712890625-.000930786132812.379180908203125-.001846313476562.568817138671875-.00262451171875.57769775390625.060791015625.89019775390625-.09478759765625.93902587890625-.467437744140625.34912109375-5.599456787109375.69818115234375-11.198944091796875,1.04730224609375-16.798416137695312.2490234375-3.99029541015625.31817626953125-6.151206970214844.208343505859375-6.483955383300781-.14007568359375-.259056091308594-.76824951171875-.435401916503906-1.884521484375-.527534484863281-.623504638671875-.037055969238281-.929168701171875-.147712707519531-.918487548828125-.3330078125.00927734375-.158935546875.078857421875-.247802734375.210601806640625-.266471862792969.131805419921875-.018585205078125.575042724609375-.019149780273438,1.3310546875-.000030517578125,1.32781982421875.054656982421875,2.620361328125-.1636962890625,3.881439208984375-.656761169433594.107177734375-.042831420898438.2935791015625-.09344482421875.5594482421875-.150665283203125.16162109375.310707092285156.189697265625,1.275032043457031.082183837890625,2.893600463867188-.202423095703125,3.049606323242188-.404937744140625,6.099197387695312-.60736083984375,9.148788452148438,1.23321533203125-1.517242431640625,2.832275390625-2.20947265625,4.78631591796875-2.068023681640625,2.056732177734375.1490478515625,3.480072021484375.810333251953125,4.26641845703125,1.972579956054688.392730712890625.581283569335938.600250244140625,1.373611450195312.624420166015625,2.376678466796875.023529052734375.352569580078125-.017852783203125,1.187896728515625-.1224365234375,2.505966186523438-.248809814453125,3.134002685546875-.497650146484375,6.268035888671875-.746490478515625,9.40203857421875.0050048828125.250320434570312.64959716796875.426284790039062,1.932098388671875.53118896484375.222137451171875.068222045898438.328277587890625.165267944335938.318023681640625.28875732421875Z" style="fill: #0071bc;"/>
  <path d="M345.25433349609375,155.97052001953125c-.0274658203125.210311889648438-.3026123046875.281448364257812-.825897216796875.2139892578125-.137481689453125-.01776123046875-.274993896484375-.03546142578125-.412506103515625-.053115844726562-.349761962890625-.04498291015625-.985748291015625-.126556396484375-1.909027099609375-.242828369140625-.923248291015625-.116241455078125-1.635101318359375-.204254150390625-2.134002685546875-.265548706054688-.74920654296875-.092025756835938-1.622802734375-.198440551757812-2.62103271484375-.317657470703125-1.02508544921875-.122421264648438-1.698486328125-.200820922851562-2.02337646484375-.238861083984375-.087310791015625-.010162353515625-.174591064453125-.02032470703125-.26190185546875-.030502319335938-.524688720703125-.06109619140625-.774139404296875-.202667236328125-.748077392578125-.4267578125.0284423828125-.248306274414062.40631103515625-.330825805664062,1.13385009765625-.246002197265625,1.279144287109375.149459838867188,2.072906494140625.107101440429688,2.381622314453125-.133224487304688.1405029296875-.10906982421875.30322265625-.932373046875.4881591796875-2.471145629882812.7720947265625-6.426437377929688,1.54425048828125-12.852859497070312,2.316375732421875-19.279296875-.002899169921875.025192260742188-.211090087890625.439804077148438-.620361328125,1.244583129882812-1.393646240234375,2.872573852539062-3.425079345703125,7.202835083007812-6.0445556640625,13.004791259765625-.812530517578125,1.9061279296875-1.620574951171875,3.813507080078125-2.42401123046875,5.722061157226562-.481781005859375,1.126541137695312-.796478271484375,1.681320190429688-.94757080078125,1.664657592773438-.175872802734375-.01934814453125-.331573486328125-.338043212890625-.4669189453125-.955123901367188-.482666015625-2.33697509765625-1.90594482421875-8.196258544921875-4.445953369140625-17.562728881835938-.37646484375-1.376541137695312-.75567626953125-2.752883911132812-1.13751220703125-4.128936767578125-.0467529296875.4722900390625-.10968017578125,1.11773681640625-.190887451171875,1.9368896484375-.399810791015625,4.034942626953125-.799652099609375,8.069854736328125-1.199493408203125,12.104782104492188-.4503173828125,4.543136596679688-.64031982421875,6.844253540039062-.569580078125,6.90130615234375.144134521484375.340316772460938.730804443359375.560989379882812,1.76116943359375.665679931640625.828826904296875.084396362304688,1.229705810546875.250747680664062,1.204345703125.497512817382812-.0286865234375.275054931640625-.3055419921875.384613037109375-.832122802734375.330673217773438-.3267822265625-.033340454101562-.62506103515625-.089309692382812-.89599609375-.166702270507812-.346527099609375-.085128784179688-.658477783203125-.141799926757812-.933624267578125-.169342041015625-1.44854736328125-.094161987304688-2.8970947265625-.184127807617188-4.345672607421875-.269882202148438-.451995849609375-.042495727539062-.667755126953125-.175186157226562-.64678955078125-.39984130859375.023101806640625-.248626708984375.752899169921875-.319183349609375,2.187408447265625-.207260131835938.602935791015625.05780029296875.964569091796875-.006805419921875,1.084320068359375-.1964111328125.11968994140625-.188461303710938.23297119140625-.830947875976562.339813232421875-1.925323486328125.581085205078125-5.956100463867188,1.162200927734375-11.912185668945312,1.7432861328125-17.868270874023438.2012939453125-2.064346313476562.28533935546875-3.185592651367188.250457763671875-3.3646240234375-.0704345703125-.359100341796875-.267822265625-.61676025390625-.592742919921875-.773757934570312-.324981689453125-.156906127929688-1.042633056640625-.327438354492188-2.1510009765625-.505859375-.413360595703125-.063194274902344-.610076904296875-.194267272949219-.591583251953125-.393592834472656.02545166015625-.272682189941406.4183349609375-.374778747558594,1.181060791015625-.30279541015625.10479736328125.009910583496094.3284912109375.030982971191406.6700439453125.063568115234375.682861328125.065078735351562,1.36572265625.131072998046875,2.0484619140625.197959899902344,1.550018310546875.15203857421875,2.640533447265625.253707885742188,3.273529052734375.299728393554688.093048095703125.335952758789062.650177001953125,2.365890502929688,1.64263916015625,6.09161376953125.42730712890625,1.551605224609375,1.6243896484375,6.0704345703125,3.48199462890625,13.562820434570312.6588134765625-1.56060791015625,1.329833984375-3.094635009765625,2.015106201171875-4.602096557617188,1.826904296875-3.94091796875,3.675537109375-7.875640869140625,5.5458984375-11.804000854492188.339141845703125-.676467895507812.637664794921875-1.234939575195312.893035888671875-1.673858642578125,1.923980712890625.218490600585938,3.847320556640625.444259643554688,5.77001953125.677200317382812.84576416015625.1080322265625,1.3262939453125.208892822265625,1.445526123046875.29962158203125.118133544921875.091171264648438.167449951171875.211288452148438.14813232421875.35943603515625-.03204345703125.248321533203125-.26837158203125.343841552734375-.7076416015625.287063598632812-.72503662109375-.093399047851562-1.2196044921875-.130691528320312-1.484222412109375-.114120483398438-.634521484375.019851684570312-1.0858154296875.165969848632812-1.356048583984375.434249877929688-.15142822265625.158248901367188-.39801025390625,1.602615356445312-.73931884765625,4.333328247070312-.72198486328125,5.7730712890625-1.44390869140625,11.546112060546875-2.16595458984375,17.319168090820312-.12420654296875.994247436523438-.09710693359375,1.590072631835938.082305908203125,1.78875732421875.297882080078125.264816284179688,1.097930908203125.477981567382812,2.4012451171875.6458740234375.075164794921875.009674072265625.150360107421875.0194091796875.225494384765625.029083251953125.50115966796875.064834594726562.7374267578125.202987670898438.7100830078125.413070678710938Z" style="fill: #0071bc;"/>
  <path d="M361.86737060546875,156.863143920898438c-.064239501953125.419998168945312-.572845458984375.789474487304688-1.524810791015625,1.113006591796875-.95098876953125.322784423828125-1.83612060546875.424957275390625-2.655426025390625.304290771484375-1.71514892578125-.252273559570312-2.48406982421875-1.256179809570312-2.307525634765625-3.020751953125-1.21112060546875,1.691864013671875-2.80487060546875,2.39666748046875-4.794525146484375,2.122802734375-1.069610595703125-.147064208984375-1.910308837890625-.58172607421875-2.522735595703125-1.305252075195312-.613616943359375-.724456787109375-.855987548828125-1.579833984375-.724761962890625-2.570327758789062.268096923828125-2.026596069335938,1.715606689453125-3.474258422851562,4.35968017578125-4.320785522460938.905029296875-.277618408203125,2.4388427734375-.469085693359375,4.600830078125-.562484741210938.0443115234375-.308700561523438.088623046875-.617355346679688.132904052734375-.926055908203125.311920166015625-2.173004150390625.403411865234375-3.621978759765625.27288818359375-4.347030639648438-.227203369140625-1.317825317382812-1.058013916015625-2.079055786132812-2.488311767578125-2.278549194335938-.894989013671875-.124740600585938-1.675018310546875.007827758789062-2.338470458984375.395278930664062-.664886474609375.387481689453125-1.044464111328125.941253662109375-1.14111328125,1.657455444335938-.026641845703125.198318481445312.115325927734375.318161010742188.426361083984375.36029052734375.310882568359375.042205810546875.570953369140625.228424072265625.7802734375.55975341796875.2073974609375.33001708984375.2861328125.680938720703125.234893798828125,1.052444458007812-.149566650390625,1.08758544921875-.776153564453125,1.554718017578125-1.879852294921875,1.405487060546875-.57763671875-.07806396484375-1.02972412109375-.333709716796875-1.3551025390625-.767166137695312-.325469970703125-.433502197265625-.449798583984375-.947357177734375-.3712158203125-1.540817260742188.154052734375-1.16259765625.75787353515625-2.101470947265625,1.815521240234375-2.815872192382812,1.17010498046875-.77386474609375,2.69122314453125-1.03363037109375,4.55767822265625-.77191162109375,2.81353759765625.394989013671875,4.43017578125,1.390838623046875,4.848663330078125,2.964996337890625.14581298828125.60186767578125.094482421875,1.741363525390625-.153594970703125,3.420425415039062-.34075927734375,2.307662963867188-.6815185546875,4.615310668945312-1.022247314453125,6.9229736328125-.167816162109375,1.136138916015625-.253448486328125,1.80462646484375-.25799560546875,2.00531005859375-.00555419921875.907379150390625.2916259765625,1.405303955078125.89166259765625,1.494796752929688.69989013671875.10443115234375,1.3123779296875-.0560302734375,1.837738037109375-.481063842773438.290985107421875-.233352661132812.499053955078125-.341049194335938.625335693359375-.321807861328125.124267578125.0189208984375.17596435546875.102935791015625.15325927734375.250564575195312ZM355.819549560546875,151.9576416015625c.129425048828125-.901565551757812.258819580078125-1.803115844726562.388214111328125-2.704696655273438-1.92938232421875.152236938476562-3.34539794921875.516067504882812-4.2470703125,1.08441162109375-.90289306640625.568496704101562-1.429931640625,1.422317504882812-1.584991455078125,2.5592041015625-.10797119140625.791534423828125.03277587890625,1.47100830078125.420623779296875,2.040771484375.3878173828125.569732666015625.92755126953125.901641845703125,1.61859130859375.9981689453125,1.061676025390625.148406982421875,1.995941162109375-.3233642578125,2.809326171875-1.416305541992188.18731689453125-.250396728515625.38604736328125-1.103790283203125.595306396484375-2.561553955078125Z" style="fill: #0071bc;"/>
  <path d="M375.377349853515625,146.409423828125c-.095184326171875.566314697265625-.351593017578125,1.00335693359375-.768096923828125,1.313735961914062-.417022705078125.309280395507812-.903839111328125.418014526367188-1.46142578125.325592041015625-.456207275390625-.075607299804688-.814422607421875-.268417358398438-1.076934814453125-.57659912109375-.26116943359375-.30804443359375-.36102294921875-.658935546875-.2965087890625-1.053054809570312.056610107421875-.345001220703125.219268798828125-.622222900390625.4884033203125-.83038330078125.26910400390625-.208282470703125.412109375-.3616943359375.428375244140625-.461044311523438.0609130859375-.3690185546875-.1888427734375-.600250244140625-.748779296875-.691818237304688-.712554931640625-.116424560546875-1.394378662109375.213470458984375-2.039947509765625.989913940429688-.747222900390625.911529541015625-1.336334228515625,2.72821044921875-1.770721435546875,5.449508666992188-.38763427734375,2.426910400390625-.77532958984375,4.853790283203125-1.16302490234375,7.280731201171875-.046844482421875.29522705078125.029998779296875.495361328125.230560302734375.602584838867188.200103759765625.108261108398438.835296630859375.260238647460938,1.90521240234375.459075927734375.265472412109375.093795776367188.387054443359375.214492797851562.363128662109375.362014770507812-.028289794921875.1724853515625-.204376220703125.232818603515625-.528533935546875.179962158203125-.574249267578125-.09332275390625-1.109954833984375-.179931640625-1.609100341796875-.26007080078125-.498779296875-.080062866210938-1.44744873046875-.232131958007812-2.845306396484375-.451141357421875-.724029541015625-.113311767578125-1.248565673828125-.194580078125-1.5721435546875-.244461059570312-.325286865234375-.050216674804688-.736663818359375-.113693237304688-1.236297607421875-.189849853515625-.39959716796875-.06109619140625-.58795166015625-.1656494140625-.565460205078125-.313323974609375.022552490234375-.148651123046875.196197509765625-.197509765625.520782470703125-.147918701171875.175018310546875.026718139648438.350128173828125.053482055664062.525177001953125.080307006835938.848876953125.13018798828125,1.36383056640625.1085205078125,1.545318603515625-.066864013671875.064361572265625-.09075927734375.160919189453125-.54522705078125.288116455078125-1.363540649414062.5296630859375-3.407012939453125,1.05926513671875-6.81396484375,1.588836669921875-10.220977783203125.2119140625-1.362625122070312.12432861328125-2.182632446289062-.262725830078125-2.45892333984375-.388153076171875-.274520874023438-1.037994384765625-.496139526367188-1.951873779296875-.659713745117188-.30633544921875-.046478271484375-.44561767578125-.156494140625-.41949462890625-.32928466796875.025909423828125-.171798706054688.165985107421875-.239608764648438.42138671875-.200836181640625.08917236328125.013519287109375.17828369140625.027069091796875.2674560546875.040634155273438.38336181640625.05828857421875.76263427734375.135101318359375,1.13897705078125.231475830078125.376373291015625.095352172851562.539398193359375.139450073242188.4884033203125.13153076171875.942779541015625.145553588867188,2.027679443359375.050033569335938,3.25775146484375-.285903930664062.17742919921875-.047653198242188.35498046875-.095260620117188.53240966796875-.142807006835938.108001708984375-.02069091796875.216094970703125-.0413818359375.32415771484375-.062026977539062.007080078125.608413696289062-.0362548828125,1.207687377929688-.130950927734375,1.798751831054688-.039398193359375.246231079101562-.078704833984375.492446899414062-.11810302734375.738662719726562,1.081390380859375-1.54486083984375,2.365509033203125-2.19793701171875,3.8443603515625-1.95452880859375.81622314453125.134353637695312,1.4521484375.486709594726562,1.90673828125,1.056854248046875.4542236328125.569076538085938.61993408203125,1.211105346679688.4998779296875,1.923736572265625Z" style="fill: #0071bc;"/>
  <path d="M392.116607666015625,163.5614013671875c-.0338134765625.172698974609375-.5101318359375.167755126953125-1.429168701171875-.009735107421875-.72052001953125-.13916015625-1.389404296875-.28009033203125-2.005615234375-.42218017578125-1.258636474609375-.290054321289062-2.125091552734375-.477706909179688-2.5972900390625-.565872192382812-.32318115234375-.060317993164062-.81854248046875-.133712768554688-1.484466552734375-.21783447265625-.665985107421875-.08514404296875-1.161041259765625-.156829833984375-1.484466552734375-.215789794921875-.22393798828125-.040756225585938-.3204345703125-.146682739257812-.289306640625-.3177490234375.03564453125-.196044921875.2901611328125-.24993896484375.76385498046875-.163375854492188,1.194610595703125.218795776367188,1.827850341796875.135360717773438,1.90081787109375-.256546020507812.058837890625-.340545654296875-1.5565185546875-3.201141357421875-4.971099853515625-8.549957275390625-.440826416015625,2.494552612304688-.881683349609375,4.989089965820312-1.322509765625,7.483642578125-.040313720703125.371749877929688.283416748046875.605270385742188.97039794921875.70184326171875.3416748046875.060867309570312.68328857421875.121994018554688,1.024871826171875.183349609375.32757568359375.058868408203125.47662353515625.176177978515625.4454345703125.34906005859375-.035308837890625.195175170898438-.326629638671875.242721557617188-.8740234375.144546508789062.04949951171875.008941650390625-.0126953125-.002197265625-.1871337890625-.033493041992188-.17431640625-.031204223632812-.47265625-.084548950195312-.896484375-.159835815429688-.597198486328125-.106231689453125-1.406280517578125-.249237060546875-2.428192138671875-.427276611328125-.97137451171875-.169265747070312-1.94305419921875-.336624145507812-2.9149169921875-.502090454101562-.597869873046875-.101638793945312-.880035400390625-.256088256835938-.844482421875-.466110229492188.021942138671875-.129867553710938.091766357421875-.199295043945312.208587646484375-.206390380859375.11669921875-.006942749023438.55059814453125.039566040039062,1.304107666015625.140609741210938.602386474609375.07830810546875.937103271484375-.002655029296875,1.004730224609375-.243698120117188.079376220703125-.163711547851562.214935302734375-.797531127929688.40533447265625-1.902145385742188,1.034881591796875-6.002578735351562,2.069732666015625-12.005203247070312,3.10455322265625-18.007781982421875.334320068359375-1.939224243164062.493621826171875-2.948165893554688.481170654296875-3.025711059570312-.02154541015625-.180999755859375-.37945556640625-.331207275390625-1.07452392578125-.449920654296875-.12860107421875-.022003173828125-.25726318359375-.043914794921875-.3858642578125-.065826416015625-.180145263671875-.030731201171875-.386810302734375-.06585693359375-.618560791015625-.105117797851562-.2833251953125-.047943115234375-.4085693359375-.16412353515625-.3773193359375-.349075317382812.031158447265625-.18402099609375.341888427734375-.226593017578125.9349365234375-.12579345703125,1.240936279296875.1864013671875,2.589080810546875.051177978515625,4.050384521484375-.401962280273438.33892822265625-.11749267578125.56085205078125-.167205810546875.663848876953125-.149063110351562.28369140625.049896240234375.24591064453125,1.09503173828125-.114654541015625,3.133697509765625-.801116943359375,4.533294677734375-1.602203369140625,9.0665283203125-2.403350830078125,13.599822998046875,4.71405029296875-2.81634521484375,7.14324951171875-4.376312255859375,7.208282470703125-4.744476318359375.02728271484375-.145843505859375-.45416259765625-.3118896484375-1.445526123046875-.49359130859375-.0250244140625-.004592895507812-.1014404296875-.018508911132812-.227691650390625-.041656494140625-.15338134765625-.028060913085938-.343017578125-.062820434570312-.571746826171875-.10430908203125-.1273193359375-.023193359375-.25457763671875-.046295166015625-.38189697265625-.069427490234375-.456451416015625-.082870483398438-.667633056640625-.221206665039062-.632171630859375-.418121337890625.0396728515625-.220916748046875.45318603515625-.2608642578125,1.24237060546875-.1170654296875.521148681640625.094940185546875,1.042205810546875.1904296875,1.563232421875.2864990234375.47027587890625.086700439453125.94049072265625.173828125,1.41070556640625.261398315429688.78778076171875.146713256835938,1.57537841796875.294723510742188,2.362823486328125.443939208984375.91461181640625.173431396484375,1.44512939453125.288360595703125,1.593505859375.341522216796875.147369384765625.054031372070312.207305908203125.155044555664062.179046630859375.301849365234375-.033172607421875.172760009765625-.648773193359375.15521240234375-1.846405029296875-.047088623046875-.86810302734375-.138656616210938-1.3995361328125-.174423217773438-1.595733642578125-.108978271484375-.33740234375.114715576171875-.67083740234375.2818603515625-.99884033203125.4998779296875-1.862518310546875,1.19219970703125-3.716278076171875,2.391204833984375-5.56134033203125,3.596923828125,2.8341064453125,4.37249755859375,4.7757568359375,7.57720947265625,5.891265869140625,9.595703125.462890625.825485229492188.8525390625,1.346511840820312,1.1728515625,1.560195922851562.249969482421875.175201416015625.849456787109375.342071533203125,1.799346923828125.50091552734375.223602294921875.04345703125.316619873046875.1632080078125.2783203125.359649658203125Z" style="fill: #0071bc;"/>
  <path d="M409.030914306640625,159.05755615234375c-.512481689453125,2.365234375-1.679290771484375,4.186767578125-3.485260009765625,5.471527099609375-1.8074951171875,1.28472900390625-3.7939453125,1.700775146484375-5.974578857421875,1.252029418945312-2.255401611328125-.463958740234375-3.977447509765625-1.642181396484375-5.1790771484375-3.54534912109375-1.2021484375-1.90277099609375-1.5791015625-4.04150390625-1.117431640625-6.417083740234375.47613525390625-2.449005126953125,1.61993408203125-4.3377685546875,3.445037841796875-5.6556396484375,1.8243408203125-1.317550659179688,3.87310791015625-1.747421264648438,6.131195068359375-1.28350830078125,2.282073974609375.469009399414062,4.019744873046875,1.682998657226562,5.20074462890625,3.63153076171875,1.181243896484375,1.949920654296875,1.502471923828125,4.13311767578125.9793701171875,6.546493530273438ZM405.620513916015625,158.289031982421875c.56903076171875-2.685501098632812.58477783203125-4.862533569335938.03790283203125-6.533187866210938-.4010009765625-1.23175048828125-1.3504638671875-2.003326416015625-2.84527587890625-2.310791015625-1.419342041015625-.291717529296875-2.670989990234375.186553955078125-3.750244140625,1.432998657226562-1.0797119140625,1.247268676757812-1.8638916015625,3.119705200195312-2.36151123046875,5.615463256835938-.49224853515625,2.472030639648438-.45806884765625,4.481918334960938.097900390625,6.031112670898438.556121826171875,1.550277709960938,1.575897216796875,2.474716186523438,3.063873291015625,2.781219482421875,1.14056396484375.235092163085938,2.07232666015625-.015121459960938,2.79791259765625-.756134033203125,1.38031005859375-1.392852783203125,2.37005615234375-3.4786376953125,2.959442138671875-6.26068115234375Z" style="fill: #0071bc;"/>
  <path d="M427.5758056640625,155.081512451171875c-.0404052734375.168106079101562-.300048828125.194931030273438-.779327392578125.080230712890625-.176483154296875-.042144775390625-.403350830078125-.096435546875-.67938232421875-.162261962890625-.07562255859375-.018020629882812-.15118408203125-.036026000976562-.226806640625-.054000854492188-.453857421875-.108016967773438-.87054443359375.076248168945312-1.2481689453125.551910400390625-.26123046875.426925659179688-.52105712890625.853225708007812-.7806396484375,1.2806396484375-1.796356201171875,2.890731811523438-3.579681396484375,5.786849975585938-5.350067138671875,8.688339233398438-.28692626953125.447784423828125-.7064208984375,1.13360595703125-1.258087158203125,2.05780029296875-.705108642578125,1.249526977539062-1.179290771484375,1.846237182617188-1.42584228515625,1.789764404296875-.1737060546875-.039871215820312-.294189453125-.310745239257812-.360992431640625-.811798095703125-.057159423828125-.3204345703125-.106231689453125-.67730712890625-.146270751953125-1.07000732421875-.79547119140625-5.784393310546875-1.241455078125-8.668609619140625-1.26873779296875-8.65008544921875-.489166259765625-3.93756103515625-.851104736328125-6.0965576171875-1.05731201171875-6.47894287109375-.178680419921875-.27130126953125-.511383056640625-.4473876953125-.996307373046875-.528350830078125-.29083251953125-.063522338867188-.58172607421875-.126937866210938-.872650146484375-.19012451171875-.25213623046875-.054855346679688-.36187744140625-.161361694335938-.32745361328125-.31988525390625.034393310546875-.158447265625.228790283203125-.1993408203125.582183837890625-.1224365234375.885498046875.192550659179688,1.7706298828125.386703491210938,2.65557861328125.582443237304688.4049072265625.089645385742188,1.20025634765625.265609741210938,2.389007568359375.53240966796875,1.288360595703125.289535522460938,1.956756591796875.442184448242188,2.008087158203125.453720092773438.062957763671875.014297485351562.125885009765625.028610229492188.18878173828125.042938232421875.253082275390625.057601928710938.360198974609375.171340942382812.3211669921875.342620849609375-.044677734375.195205688476562-.45892333984375.203567504882812-1.24041748046875.0264892578125-.78363037109375-.177383422851562-1.19586181640625-.166732788085938-1.23980712890625.028549194335938-.060577392578125.268753051757812-.045257568359375.695541381835938.04571533203125,1.280548095703125.186492919921875,1.064163208007812.502655029296875,3.332687377929688.926971435546875,6.8045654296875.16802978515625,1.549942016601562.32421875,2.738418579101562.4725341796875,3.567169189453125,1.19781494140625-2.011032104492188,2.25732421875-3.732131958007812,3.1734619140625-5.16400146484375,1.844757080078125-2.912063598632812,2.811248779296875-4.510848999023438,2.87945556640625-4.80389404296875.051483154296875-.2197265625-.112213134765625-.37347412109375-.489898681640625-.462203979492188-.202239990234375-.04742431640625-.366119384765625-.0858154296875-.49139404296875-.115127563476562-.113494873046875-.026535034179688-.226959228515625-.053054809570312-.340423583984375-.079544067382812-.328582763671875-.076690673828125-.471893310546875-.19921875-.432647705078125-.367568969726562.0341796875-.1473388671875.20257568359375-.18560791015625.504669189453125-.115020751953125.782501220703125.1826171875,1.564727783203125.366455078125,2.346710205078125.551559448242188.478973388671875.113372802734375.957916259765625.22723388671875,1.436767578125.341522216796875.761810302734375.15576171875,1.122589111328125.321258544921875,1.08154296875.492034912109375Z" style="fill: #0071bc;"/>
  <path d="M431.670257568359375,172.427658081054688c-.054962158203125.217926025390625-.292449951171875.27374267578125-.710418701171875.168930053710938.02410888671875.00604248046875-.264404296875-.09259033203125-.868316650390625-.294662475585938-.726104736328125-.232574462890625-1.336517333984375-.40875244140625-1.829315185546875-.530349731445312-1.281341552734375-.316192626953125-2.563385009765625-.62896728515625-3.84588623046875-.938323974609375-.146514892578125.066085815429688-.306182861328125.079879760742188-.47900390625.038299560546875-.2708740234375-.065277099609375-.3851318359375-.187774658203125-.341705322265625-.3673095703125.0618896484375-.257369995117188.3389892578125-.326553344726562.832611083984375-.207565307617188.943511962890625.202499389648438,1.471649169921875.259872436523438,1.585296630859375.171844482421875.11260986328125-.088165283203125.2784423828125-.580474853515625.496673583984375-1.477188110351562.894012451171875-3.67266845703125,1.788177490234375-7.345367431640625,2.68218994140625-11.018051147460938.121917724609375-.612380981445312.177581787109375-.977859497070312.16680908203125-1.09613037109375-.01092529296875-.118194580078125-.1551513671875-.21063232421875-.431732177734375-.277740478515625-.364501953125-.08843994140625-.72900390625-.17657470703125-1.093597412109375-.264495849609375-.101409912109375-.024429321289062-.226348876953125-.054397583007812-.378021240234375-.091049194335938-.27679443359375-.066558837890625-.39410400390625-.18511962890625-.353240966796875-.355026245117188.0355224609375-.148086547851562.2666015625-.182083129882812.693572998046875-.102432250976562,1.680877685546875.330474853515625,3.200164794921875.302520751953125,4.5618896484375-.087570190429688.141693115234375-.040130615234375.283355712890625-.080169677734375.425079345703125-.1202392578125.109466552734375.412322998046875.043914794921875,1.101470947265625-.1954345703125,2.067352294921875.012054443359375-.048294067382812-.017974853515625.073013305664062-.08978271484375.362091064453125-.071868896484375.291107177734375-.188873291015625.76202392578125-.350555419921875,1.414230346679688-.817535400390625,3.297943115234375-1.635101318359375,6.595916748046875-2.45263671875,9.893875122070312-.239501953125.966842651367188-.36199951171875,1.539169311523438-.367218017578125,1.716964721679688-.004486083984375.178955078125.097930908203125.320037841796875.307769775390625.423553466796875.34539794921875.188583374023438.8758544921875.370834350585938,1.59033203125.5501708984375.3441162109375.086349487304688.4931640625.227737426757812.44464111328125.420822143554688ZM434.502838134765625,149.102890014648438c-.2701416015625,1.090103149414062-.97552490234375,1.493331909179688-2.11590576171875,1.213546752929688-.482330322265625-.118331909179688-.851348876953125-.369247436523438-1.107513427734375-.752166748046875-.255615234375-.383926391601562-.331298828125-.794174194335938-.2254638671875-1.22967529296875.27685546875-1.1396484375.98858642578125-1.571441650390625,2.135345458984375-1.29034423828125,1.145782470703125.281112670898438,1.583892822265625.968734741210938,1.31353759765625,2.058639526367188Z" style="fill: #0071bc;"/>
  <path d="M449.9097900390625,164.100265502929688c-.303436279296875,1.107940673828125-1.014556884765625,1.50689697265625-2.13372802734375,1.203277587890625-1.095947265625-.296905517578125-1.50762939453125-.950042724609375-1.236083984375-1.962188720703125.070770263671875-.2640380859375.303131103515625-.62860107421875.69598388671875-1.091018676757812.11993408203125-.148880004882812.2025146484375-.307449340820312.24798583984375-.476303100585938.129791259765625-.481903076171875-.019683837890625-.94793701171875-.448394775390625-1.399795532226562-.430206298828125-.450119018554688-1.033843994140625-.780441284179688-1.8116455078125-.986907958984375-1.505096435546875-.399642944335938-2.838531494140625-.077102661132812-3.991546630859375.96270751953125-1.1539306640625,1.040802001953125-2.02130126953125,2.69781494140625-2.608642578125,4.967803955078125-.66229248046875,2.561325073242188-.751708984375,4.645004272460938-.274261474609375,6.250762939453125.477447509765625,1.60791015625,1.474090576171875,2.609619140625,2.997314453125,3.0142822265625,1.032684326171875.27447509765625,2.037506103515625.20819091796875,3.017364501953125-.198959350585938.446624755859375-.190017700195312,1.075714111328125-.613723754882812,1.88909912109375-1.272003173828125.1561279296875-.087066650390625.28369140625-.1171875.38189697265625-.09039306640625.246124267578125.06689453125.343658447265625.19805908203125.291290283203125.390182495117188-.085296630859375.312850952148438-.678497314453125.784255981445312-1.77337646484375,1.418212890625-1.412841796875.832183837890625-2.9737548828125,1.018829345703125-4.691131591796875.56390380859375-2.15997314453125-.571945190429688-3.74676513671875-1.795333862304688-4.773468017578125-3.682510375976562-1.027496337890625-1.886001586914062-1.252899169921875-3.988510131835938-.663665771484375-6.310638427734375.631561279296875-2.490234375,1.915069580078125-4.360931396484375,3.863616943359375-5.598739624023438,1.9473876953125-1.238571166992188,4.0849609375-1.553421020507812,6.3941650390625-.94061279296875,1.481719970703125.393234252929688,2.692108154296875,1.119277954101562,3.62945556640625,2.17474365234375.937835693359375,1.055557250976562,1.267486572265625,2.078201293945312.997772216796875,3.064193725585938Z" style="fill: #0071bc;"/>
</svg>